# xmcd
#
# Track frame offsets:
# 150
# 17196
# 31234
# 43425
# 57078
# 70536
# 82616
# 93942
# 104568
# 117748
# 133444
# 148311
# 164336
# 179449
# 192547
# 207361
# 224184
# 236992
# 250324
# 267167
# 280041
# 295062
#
# Disc length: 4126 seconds
#
#
# Revision: 2
# Processed by: cddbd v1.5.1PL0 Copyright (c) Steve Scherf et al.
# Submitted via: FreeRIP 2.90 
#
DISCID=63101c16
DTITLE=Teodoro and Sampaio - Bailao 2005
DYEAR=2005
DGENRE=Country
TTITLE0=O Garrafao
TTITLE1=Alo mulherada
TTITLE2=Chorar por amor, nunca mais
TTITLE3=E mentira
TTITLE4=Tontao
TTITLE5=Mulher de peao
TTITLE6=Garanhao da madrugada
TTITLE7=Nem ai
TTITLE8=sera que vai chover
TTITLE9=Se a casa cair
TTITLE10=Vai chover mulher
TTITLE11=Cowboy conquistador
TTITLE12=doidao por voce
TTITLE13=filho da tuta
TTITLE14=Vacina do amor
TTITLE15=A gostosona
TTITLE16=Bebo e choro
TTITLE17=O mala
TTITLE18=Virus da paixão
TTITLE19=Aqui pra ela
TTITLE20=Mulher Chorona
TTITLE21=O trem ta feio
EXTD=YEAR: 2005
EXTT0=
EXTT1=
EXTT2=
EXTT3=
EXTT4=
EXTT5=
EXTT6=
EXTT7=
EXTT8=
EXTT9=
EXTT10=
EXTT11=
EXTT12=
EXTT13=
EXTT14=
EXTT15=
EXTT16=
EXTT17=
EXTT18=
EXTT19=
EXTT20=
EXTT21=
PLAYORDER=
